<svg id="svg" xmlns="http://www.w3.org/2000/svg" xmlns:xlink="http://www.w3.org/1999/xlink" width="400" height="506.89655172413796" viewBox="0, 0, 400,506.89655172413796"><g id="svgg"><path id="path0" d="M182.414 5.540 C 180.138 5.858,175.638 6.482,172.414 6.927 C 43.050 24.761,-31.938 161.250,24.469 276.207 C 93.424 416.738,301.885 419.704,373.819 281.177 C 394.220 241.889,400.040 192.250,389.198 150.000 C 369.272 72.349,309.763 19.285,228.276 6.506 C 220.082 5.221,189.333 4.574,182.414 5.540 M228.144 45.495 C 310.639 57.626,370.777 126.802,361.863 199.310 C 356.763 240.791,321.014 275.771,281.082 278.353 C 277.048 278.613,273.596 279.071,273.411 279.370 C 272.953 280.111,277.713 289.005,286.298 303.448 C 296.717 320.978,297.242 322.896,292.828 327.310 C 287.395 332.743,281.675 329.340,252.759 303.479 C 233.763 286.490,222.164 282.588,188.276 281.786 C 180.500 281.602,171.948 281.089,169.272 280.647 C 164.487 279.856,164.297 279.883,157.892 282.276 C 127.561 293.613,96.944 279.968,85.859 250.172 C 84.809 247.350,84.377 246.897,82.738 246.897 C 61.667 246.897,40.498 221.158,37.869 192.341 C 29.847 104.441,125.738 30.436,228.144 45.495 M186.207 54.950 C 144.031 59.254,111.837 73.945,84.179 101.506 C 38.243 147.283,35.725 221.601,79.653 235.122 L 83.793 236.396 84.302 231.474 C 85.256 222.262,88.439 213.977,94.222 205.657 C 95.883 203.268,97.241 200.839,97.241 200.259 C 97.241 198.569,101.091 195.172,103.006 195.172 C 111.091 195.172,112.605 202.006,105.987 208.624 C 89.543 225.068,92.042 253.206,111.199 267.308 C 124.004 276.735,144.668 277.813,158.553 269.779 L 161.589 268.022 168.553 269.258 C 173.029 270.052,181.678 270.699,192.759 271.067 C 227.857 272.234,239.546 276.702,262.391 297.682 C 272.061 306.562,278.160 311.725,278.536 311.349 C 278.951 310.934,267.135 292.636,263.386 287.887 C 257.458 280.376,250.274 274.311,235.558 264.396 L 221.116 254.665 218.317 256.705 C 208.492 263.865,194.407 250.364,201.079 240.180 C 202.117 238.596,202.007 238.390,197.359 233.239 C 189.642 224.687,190.599 225.130,185.518 227.752 C 179.071 231.078,169.526 231.082,162.515 227.762 C 159.916 226.531,157.433 225.733,156.998 225.989 C 152.612 228.572,144.812 235.505,145.209 236.468 C 146.295 239.104,146.340 243.384,145.303 245.463 C 144.117 247.841,143.757 247.190,152.300 258.129 C 155.156 261.787,155.324 262.213,154.313 263.224 C 152.647 264.890,151.578 264.098,145.963 257.046 L 140.805 250.567 137.127 250.839 C 126.503 251.625,122.148 238.542,131.034 232.533 C 133.113 231.128,134.021 230.951,137.575 231.262 L 141.703 231.623 146.766 227.708 C 149.551 225.555,152.463 223.299,153.237 222.694 L 154.645 221.596 152.882 218.901 C 151.912 217.419,150.904 215.328,150.643 214.255 C 150.381 213.181,149.719 212.130,149.171 211.920 C 147.618 211.324,128.052 216.588,127.101 217.857 C 123.510 222.650,118.537 222.724,116.587 218.015 C 114.577 213.164,119.851 208.342,124.659 210.635 C 127.108 211.803,127.331 211.779,137.981 209.213 L 148.812 206.603 149.606 201.794 C 153.326 179.266,183.664 172.674,194.363 192.069 C 195.720 194.530,231.436 174.797,230.728 171.977 C 229.115 165.550,237.701 160.420,243.519 164.336 C 252.261 170.219,244.854 182.133,234.663 178.580 C 232.806 177.933,232.147 178.117,228.870 180.198 C 226.836 181.490,218.869 186.046,211.165 190.322 C 201.476 195.700,197.269 198.388,197.519 199.040 C 199.305 203.692,198.384 212.079,195.388 218.459 L 193.683 222.091 196.439 225.356 C 202.652 232.713,205.295 234.806,207.251 233.914 C 215.420 230.192,224.667 237.043,223.996 246.321 L 223.697 250.450 226.559 252.419 C 283.534 291.618,353.962 250.896,351.515 180.168 C 348.961 106.326,269.865 46.412,186.207 54.950 M217.273 67.414 C 219.989 69.840,220.777 74.310,219.055 77.512 L 217.902 79.655 224.512 92.586 C 230.981 105.240,231.170 105.518,233.320 105.548 C 234.528 105.564,236.759 106.050,238.276 106.627 C 239.793 107.205,241.500 107.818,242.069 107.991 C 242.675 108.174,245.872 105.876,249.790 102.440 L 256.476 96.576 255.436 93.523 C 252.103 83.742,263.249 75.669,271.552 81.850 C 274.953 84.382,276.095 87.131,275.674 91.770 L 275.318 95.697 282.270 102.159 C 286.094 105.713,290.277 109.461,291.566 110.488 L 293.908 112.355 296.427 111.005 C 310.161 103.644,322.698 125.588,309.680 134.203 C 299.385 141.017,284.693 129.182,290.342 118.625 C 291.419 116.613,290.833 115.876,281.304 107.252 L 272.335 99.135 270.094 100.343 C 267.896 101.526,264.510 101.536,260.969 100.371 C 259.224 99.796,245.636 111.577,246.180 113.192 C 249.969 124.447,237.323 135.763,228.361 129.138 L 226.522 127.778 219.295 132.516 C 215.321 135.122,209.586 138.983,206.552 141.095 L 201.034 144.935 201.034 149.300 C 201.034 153.157,200.785 153.974,198.890 156.315 C 196.915 158.755,195.686 159.426,190.085 161.123 C 188.364 161.644,187.766 162.595,185.586 168.276 C 183.495 173.726,182.800 174.866,181.456 175.058 C 178.629 175.462,178.589 174.296,181.173 166.752 L 183.691 159.401 181.611 157.458 C 180.466 156.389,179.163 154.401,178.714 153.040 L 177.897 150.567 167.742 149.721 C 162.156 149.256,156.760 148.722,155.751 148.534 C 154.044 148.217,153.840 148.451,152.847 151.855 C 147.729 169.411,125.394 174.396,111.976 160.977 L 108.899 157.901 100.139 162.820 C 95.321 165.526,87.768 169.762,83.355 172.235 C 75.410 176.686,75.326 176.759,74.949 179.571 C 74.166 185.406,67.550 187.656,63.395 183.501 C 58.038 178.144,63.597 169.253,70.699 171.822 C 72.672 172.535,73.323 172.363,77.645 169.995 C 88.215 164.203,106.897 153.645,106.897 153.465 C 106.897 153.359,106.395 152.071,105.782 150.603 C 103.722 145.674,105.159 136.976,109.125 130.359 C 120.155 111.961,149.417 117.734,153.348 139.083 L 154.215 143.793 161.073 144.213 C 164.845 144.444,170.289 144.854,173.172 145.124 L 178.413 145.615 179.233 143.634 C 181.407 138.387,189.830 136.233,195.955 139.358 L 198.482 140.647 204.586 136.719 C 217.719 128.268,223.101 124.447,223.034 123.621 C 222.997 123.147,222.919 121.103,222.862 119.079 L 222.759 115.400 211.552 112.855 C 205.388 111.455,197.640 109.730,194.334 109.021 L 188.322 107.733 187.857 109.197 C 187.602 110.003,186.467 111.527,185.336 112.583 L 183.279 114.505 186.485 122.201 C 189.797 130.152,189.815 131.296,186.622 130.866 C 185.091 130.660,185.008 130.524,181.432 122.414 L 178.695 116.207 175.638 115.759 C 168.223 114.672,164.338 109.345,165.654 102.069 C 167.795 90.237,184.030 88.640,188.018 99.869 L 189.212 103.230 204.778 106.550 C 230.671 112.073,229.514 112.899,220.696 95.185 L 214.235 82.206 211.592 81.783 C 209.948 81.520,207.929 80.440,206.252 78.925 L 203.557 76.489 195.399 76.952 C 189.153 77.307,186.918 77.695,185.862 78.605 C 183.458 80.678,182.810 80.798,180.710 79.557 C 178.854 78.461,178.146 78.429,173.295 79.225 C 164.780 80.622,165.034 80.498,164.562 83.454 C 163.973 87.136,160.367 90.849,156.831 91.415 L 154.118 91.848 151.807 98.510 C 145.757 115.945,145.090 117.098,142.130 115.225 C 141.330 114.718,141.918 112.426,145.441 102.305 L 149.724 90.000 148.060 88.621 C 141.108 82.858,143.519 71.944,152.049 70.559 C 155.811 69.949,159.081 70.911,161.727 73.406 L 164.183 75.723 171.203 74.806 C 177.409 73.995,178.373 73.682,179.514 72.116 C 181.047 70.013,183.164 69.843,185.128 71.667 C 186.426 72.872,187.323 72.955,195.302 72.603 L 204.052 72.217 204.878 70.223 C 206.924 65.284,213.278 63.844,217.273 67.414 M242.445 72.038 C 245.883 75.475,243.605 81.379,238.841 81.379 C 236.932 81.379,233.832 78.586,233.711 76.755 C 233.345 71.211,238.717 68.309,242.445 72.038 M152.494 78.366 C 150.876 79.500,150.521 82.659,151.862 84.000 C 153.225 85.363,156.410 85.001,157.276 83.384 C 159.081 80.011,155.504 76.258,152.494 78.366 M130.402 87.436 C 136.777 93.132,130.256 103.323,122.792 99.328 C 121.788 98.791,120.446 99.431,116.113 102.514 C 108.334 108.048,107.586 108.839,107.586 111.531 C 107.586 116.916,101.162 119.199,97.188 115.225 C 92.652 110.689,95.678 103.935,102.115 104.229 C 106.486 104.429,119.293 95.746,119.335 92.555 C 119.414 86.517,125.976 83.482,130.402 87.436 M196.207 90.000 C 196.207 90.905,195.674 91.455,194.655 91.600 C 193.382 91.780,193.103 91.493,193.103 90.000 C 193.103 88.507,193.382 88.220,194.655 88.400 C 195.674 88.545,196.207 89.095,196.207 90.000 M209.027 92.833 C 210.110 94.138,208.206 96.057,206.485 95.396 C 205.285 94.936,205.210 92.653,206.379 92.181 C 207.798 91.609,208.066 91.675,209.027 92.833 M240.952 93.953 C 241.987 95.603,240.040 97.566,238.008 96.921 C 236.579 96.467,235.972 93.913,237.041 92.844 C 237.855 92.030,240.156 92.682,240.952 93.953 M294.347 98.184 C 294.095 99.943,291.888 100.540,291.300 99.008 C 290.755 97.586,292.222 95.832,293.535 96.336 C 294.100 96.552,294.462 97.378,294.347 98.184 M173.188 100.068 C 170.108 103.374,171.072 107.395,175.458 109.545 C 179.170 111.364,184.362 106.834,182.994 102.970 C 181.485 98.705,175.977 97.075,173.188 100.068 M269.328 116.724 C 270.513 119.276,271.072 119.735,273.644 120.275 C 277.295 121.042,277.070 122.177,273.074 123.157 C 270.448 123.800,269.877 124.283,268.789 126.777 C 267.026 130.819,266.229 130.672,265.239 126.122 C 264.846 124.317,263.237 123.353,259.110 122.450 C 256.562 121.892,257.223 121.032,260.911 120.103 C 263.514 119.448,264.060 118.977,265.005 116.570 C 266.402 113.013,267.625 113.056,269.328 116.724 M155.558 117.175 C 154.904 118.233,152.414 118.122,152.414 117.034 C 152.414 116.541,152.788 115.763,153.246 115.305 C 154.261 114.290,156.315 115.951,155.558 117.175 M86.495 119.453 C 87.622 126.506,90.270 129.621,96.058 130.707 C 100.019 131.450,99.435 133.195,94.673 134.842 C 89.915 136.487,87.998 138.947,86.824 144.916 C 86.032 148.945,85.071 150.603,84.552 148.837 C 84.405 148.339,83.915 146.127,83.463 143.922 C 82.362 138.555,79.745 135.580,75.158 134.479 C 73.270 134.026,71.729 133.454,71.735 133.207 C 71.763 131.987,73.042 131.102,75.862 130.349 C 80.543 129.099,82.658 126.422,83.762 120.350 C 84.641 115.516,85.804 115.135,86.495 119.453 M205.789 122.931 C 206.771 124.499,205.606 126.466,203.512 126.777 C 200.643 127.203,198.882 124.152,200.857 122.177 C 202.020 121.015,204.861 121.449,205.789 122.931 M167.448 124.276 C 168.620 125.448,168.475 128.668,167.192 129.951 C 164.087 133.056,159.292 128.787,161.722 125.079 C 162.894 123.291,166.024 122.852,167.448 124.276 M123.023 130.622 C 109.144 137.084,113.291 157.895,128.713 159.174 C 133.902 159.605,139.359 156.920,142.109 152.585 C 150.505 139.345,137.192 124.025,123.023 130.622 M257.159 136.397 C 258.082 138.122,256.855 140.000,254.806 140.000 C 253.074 140.000,251.782 137.443,252.734 135.901 C 253.459 134.729,256.445 135.063,257.159 136.397 M326.743 136.246 C 329.544 138.208,328.023 142.241,324.483 142.241 C 321.040 142.241,319.652 138.969,322.069 136.552 C 323.729 134.892,324.717 134.827,326.743 136.246 M279.733 139.362 C 280.638 142.149,284.199 144.828,286.999 144.828 C 289.462 144.828,289.453 145.125,286.897 148.036 C 284.701 150.537,284.427 152.267,285.496 156.877 C 286.303 160.360,286.296 160.364,282.685 158.300 C 278.912 156.143,278.344 156.143,274.305 158.293 C 270.733 160.194,270.785 160.264,271.692 154.828 C 272.238 151.547,272.152 151.239,269.918 148.494 C 267.330 145.316,267.294 145.398,271.798 144.182 C 274.974 143.325,277.241 140.543,277.241 137.505 C 277.241 135.643,278.935 136.905,279.733 139.362 M244.828 144.138 C 248.523 147.833,243.070 153.403,239.192 149.893 C 237.648 148.496,237.575 146.332,239.005 144.291 C 240.345 142.378,242.997 142.308,244.828 144.138 M186.797 144.494 C 181.084 147.598,184.746 156.209,191.178 154.796 C 195.779 153.786,196.437 147.378,192.204 144.797 C 189.606 143.213,189.197 143.190,186.797 144.494 M300.288 148.005 C 301.697 148.545,301.696 151.292,300.287 152.462 C 298.137 154.246,295.443 150.788,297.269 148.588 C 298.188 147.480,298.676 147.386,300.288 148.005 M224.152 151.061 C 225.602 153.771,223.486 156.405,220.594 155.487 C 218.972 154.972,218.193 152.036,219.318 150.681 C 220.549 149.197,223.269 149.410,224.152 151.061 M71.586 151.862 C 73.866 154.142,71.170 158.461,67.969 157.657 C 64.390 156.759,65.152 151.034,68.852 151.034 C 69.901 151.034,71.131 151.407,71.586 151.862 M328.731 156.244 C 336.635 162.273,333.726 174.064,323.687 176.689 C 322.712 176.944,319.762 183.116,312.250 200.619 L 302.127 224.206 303.627 227.084 C 311.409 242.014,294.807 257.822,280.283 249.311 C 270.447 243.546,269.170 227.618,278.039 221.302 L 279.941 219.948 277.559 214.721 C 276.249 211.846,273.735 206.116,271.973 201.988 L 268.769 194.483 266.281 194.452 C 264.913 194.435,262.866 194.025,261.734 193.542 C 259.760 192.701,259.300 192.893,250.699 198.145 C 245.763 201.159,238.886 205.303,235.417 207.353 C 229.686 210.740,229.067 211.310,228.639 213.595 C 227.030 222.172,215.020 223.675,211.003 215.801 C 206.109 206.207,217.163 197.198,225.186 204.243 L 227.585 206.349 237.413 200.660 C 242.819 197.531,249.309 193.644,251.836 192.021 L 256.431 189.072 256.056 184.936 C 255.081 174.189,269.081 168.719,274.886 177.579 L 275.993 179.267 279.203 177.643 C 280.969 176.749,285.207 175.034,288.621 173.832 C 306.905 167.390,311.724 165.343,311.724 164.016 C 311.724 160.735,315.565 155.792,319.310 154.255 C 321.354 153.415,326.427 154.487,328.731 156.244 M259.540 157.536 C 260.037 158.829,258.408 160.140,256.984 159.593 C 255.837 159.153,255.498 157.835,256.322 157.011 C 257.138 156.195,259.152 156.523,259.540 157.536 M211.178 161.552 C 213.838 163.643,212.551 168.276,209.310 168.276 C 207.496 168.276,205.399 165.607,205.896 163.930 C 206.382 162.292,208.070 160.690,209.310 160.690 C 209.734 160.690,210.575 161.078,211.178 161.552 M167.202 163.657 C 168.068 166.134,167.050 167.855,164.544 168.153 C 162.138 168.439,160.690 167.210,160.690 164.881 C 160.690 160.919,165.903 159.940,167.202 163.657 M302.069 173.898 C 297.328 175.774,289.732 178.768,285.191 180.551 C 277.251 183.668,276.915 183.883,276.468 186.114 C 276.213 187.391,275.351 189.318,274.554 190.397 C 272.654 192.966,272.346 191.803,278.546 205.483 L 283.989 217.492 288.771 217.588 C 292.003 217.654,294.090 218.061,295.206 218.843 C 297.590 220.513,298.515 220.287,299.644 217.759 C 305.059 205.638,316.187 179.961,316.830 178.102 C 317.616 175.832,317.543 175.636,314.950 173.043 C 311.694 169.787,312.610 169.726,302.069 173.898 M102.804 174.507 C 105.228 175.804,103.830 180.690,101.034 180.690 C 98.546 180.690,96.949 176.431,98.759 174.621 C 99.775 173.605,101.051 173.569,102.804 174.507 M199.617 176.489 C 200.201 177.436,199.288 179.310,198.243 179.310 C 197.031 179.310,196.333 178.115,196.814 176.864 C 197.241 175.751,199.014 175.514,199.617 176.489 M147.101 177.997 C 148.939 180.934,145.072 184.801,142.135 182.963 C 140.737 182.089,140.327 178.854,141.443 177.509 C 142.525 176.206,146.177 176.520,147.101 177.997 M125.387 182.096 C 127.655 184.208,127.661 188.587,125.399 190.517 C 122.370 193.103,117.052 191.434,116.218 187.636 C 115.032 182.235,121.404 178.385,125.387 182.096 M338.621 184.064 C 338.621 185.571,337.183 186.334,335.871 185.523 C 334.590 184.731,335.552 182.759,337.220 182.759 C 338.135 182.759,338.621 183.212,338.621 184.064 M88.841 187.421 C 89.007 188.582,88.717 188.966,87.675 188.966 C 85.993 188.966,85.364 188.097,85.947 186.580 C 86.559 184.985,88.577 185.571,88.841 187.421 M169.818 190.330 C 154.755 193.903,154.935 215.995,170.064 220.393 C 186.048 225.040,196.230 204.549,183.396 193.563 C 179.589 190.304,174.767 189.156,169.818 190.330 M236.897 192.759 C 236.897 194.813,234.204 194.607,233.910 192.531 C 233.721 191.194,233.953 190.962,235.290 191.152 C 236.361 191.303,236.897 191.839,236.897 192.759 M293.838 193.128 C 295.453 193.992,295.587 196.728,294.089 198.227 C 291.025 201.291,287.186 196.902,290.107 193.675 C 291.421 192.223,291.992 192.140,293.838 193.128 M76.413 197.260 C 80.939 201.477,76.784 208.012,70.848 206.015 C 69.796 205.661,68.633 204.805,68.261 204.111 C 65.453 198.863,72.120 193.260,76.413 197.260 M333.881 199.735 C 337.059 202.611,335.660 208.932,331.545 210.290 C 324.262 212.694,320.027 202.721,326.741 198.978 C 328.900 197.775,332.088 198.112,333.881 199.735 M260.345 212.711 C 260.345 214.241,259.370 214.716,258.003 213.851 C 256.699 213.027,257.608 210.871,259.136 211.165 C 259.801 211.293,260.345 211.989,260.345 212.711 M253.161 218.219 C 254.098 221.939,255.960 223.766,259.872 224.805 C 263.588 225.791,263.332 226.719,258.942 228.175 C 256.030 229.140,255.311 229.747,254.138 232.230 C 252.530 235.634,251.026 235.787,250.208 232.629 C 249.463 229.755,246.642 227.586,243.650 227.586 C 240.044 227.586,240.909 225.553,245.025 224.354 C 248.416 223.366,248.510 223.250,250.947 217.069 C 251.959 214.503,252.266 214.662,253.161 218.219 M75.027 218.535 C 74.698 220.260,71.724 220.432,71.724 218.726 C 71.724 217.973,72.112 217.221,72.586 217.056 C 73.991 216.566,75.256 217.332,75.027 218.535 M324.674 221.074 C 327.866 223.309,325.889 228.966,321.916 228.966 C 321.241 228.966,320.069 228.345,319.310 227.586 C 315.494 223.770,320.261 217.982,324.674 221.074 M285.045 227.183 C 280.588 229.188,279.378 236.057,282.833 239.735 C 286.902 244.065,293.519 243.026,296.146 237.644 C 299.362 231.056,291.954 224.075,285.045 227.183 M113.235 236.911 C 114.860 240.477,110.067 243.762,107.291 240.985 C 105.329 239.023,106.297 235.164,108.966 234.310 C 110.454 233.834,112.363 234.997,113.235 236.911 M209.945 240.321 C 202.152 243.597,206.835 254.763,214.741 251.757 C 218.300 250.404,219.517 242.867,216.479 240.990 C 214.593 239.824,211.806 239.539,209.945 240.321 M242.621 240.828 C 244.458 242.665,242.711 246.207,239.967 246.207 C 237.982 246.207,236.260 243.213,237.217 241.426 C 238.073 239.826,241.266 239.473,242.621 240.828 M165.912 242.597 C 167.438 243.641,167.561 245.543,166.191 246.912 C 164.649 248.455,162.742 248.673,161.517 247.448 C 158.998 244.929,162.949 240.567,165.912 242.597 M186.697 250.517 C 190.637 254.822,188.318 260.690,182.676 260.690 C 177.252 260.690,174.808 255.281,178.337 251.087 C 180.614 248.382,184.500 248.117,186.697 250.517 M262.621 249.793 C 263.076 250.248,263.448 251.272,263.448 252.069 C 263.448 252.866,263.076 253.890,262.621 254.345 C 262.166 254.800,261.141 255.172,260.345 255.172 C 259.548 255.172,258.524 254.800,258.069 254.345 C 257.614 253.890,257.241 252.866,257.241 252.069 C 257.241 251.272,257.614 250.248,258.069 249.793 C 258.524 249.338,259.548 248.966,260.345 248.966 C 261.141 248.966,262.166 249.338,262.621 249.793 M122.759 252.414 C 125.451 255.107,123.620 259.310,119.754 259.310 C 116.842 259.310,115.862 258.242,115.862 255.069 C 115.862 251.123,119.909 249.565,122.759 252.414 M134.138 263.803 C 134.138 264.698,133.601 265.249,132.586 265.393 C 131.047 265.611,130.336 263.687,131.518 262.505 C 132.433 261.590,134.138 262.435,134.138 263.803 M105.461 395.747 C 88.117 400.275,76.429 419.119,80.067 436.690 C 85.764 464.209,120.291 474.918,139.913 455.251 C 165.644 429.460,140.786 386.526,105.461 395.747 M37.931 395.930 C 22.180 399.006,10.424 414.765,11.231 431.724 C 12.709 462.787,49.224 477.049,71.147 455.126 C 75.412 450.860,75.539 451.284,68.296 445.570 C 61.228 439.995,60.975 439.926,58.232 442.846 C 47.274 454.509,26.364 443.097,29.654 427.248 C 32.361 414.210,47.313 408.559,57.051 416.894 C 60.763 420.071,60.761 420.072,67.759 414.439 C 74.878 408.708,74.877 408.715,69.998 404.256 C 61.824 396.785,49.687 393.634,37.931 395.930 M165.132 396.841 C 163.248 398.218,162.673 461.885,164.528 463.740 C 165.905 465.117,179.906 465.335,181.241 464.000 C 181.834 463.407,182.069 458.912,182.069 448.138 C 182.069 439.869,182.320 433.103,182.627 433.103 C 182.934 433.103,186.853 438.243,191.337 444.526 C 199.959 456.605,201.687 458.347,204.277 457.570 C 206.195 456.995,206.269 456.906,216.393 443.122 L 224.483 432.107 224.662 447.605 C 224.877 466.148,224.115 464.828,234.590 464.828 C 244.430 464.828,243.565 468.275,243.314 430.080 C 243.068 392.751,243.791 395.862,235.365 395.862 C 228.249 395.862,229.063 395.142,217.931 411.285 C 213.569 417.610,208.621 424.785,206.935 427.228 C 203.178 432.672,204.729 433.926,190.923 414.282 C 184.761 405.514,179.162 397.782,178.480 397.101 C 176.881 395.501,167.222 395.313,165.132 396.841 M262.414 396.468 L 260.345 396.910 260.166 429.928 C 260.036 453.734,260.204 463.208,260.767 463.887 C 261.401 464.651,266.390 464.828,287.302 464.828 C 317.452 464.828,314.643 465.813,314.335 455.344 L 314.138 448.621 296.207 448.276 L 278.276 447.931 278.276 443.103 L 278.276 438.276 292.759 437.931 L 307.241 437.586 307.241 430.345 L 307.241 423.103 292.555 422.917 L 277.869 422.731 278.072 418.090 L 278.276 413.448 295.461 413.264 C 306.727 413.142,312.963 412.816,313.565 412.317 C 314.978 411.144,314.840 398.387,313.399 396.946 C 312.270 395.817,267.426 395.396,262.414 396.468 M325.212 397.395 C 323.803 399.406,323.672 411.169,325.045 412.308 C 325.574 412.747,329.827 413.142,335.218 413.255 L 344.483 413.448 344.483 438.472 C 344.483 467.556,343.547 464.806,353.448 464.806 C 363.336 464.806,362.382 467.567,362.611 438.302 L 362.808 413.103 372.365 413.103 C 383.540 413.103,382.759 413.752,382.759 404.476 C 382.759 395.058,385.495 395.862,353.438 395.862 L 326.285 395.862 325.212 397.395 M116.164 408.103 C 117.685 418.960,122.491 425.341,130.765 427.487 C 132.241 427.870,134.799 428.535,136.449 428.964 C 140.165 429.932,139.872 430.251,134.165 431.447 C 123.391 433.706,118.547 438.914,116.484 450.458 C 115.542 455.730,114.749 456.448,114.133 452.586 C 111.964 438.982,106.654 432.925,95.517 431.351 C 90.380 430.624,89.536 429.921,92.788 429.077 C 94.289 428.687,96.912 428.005,98.617 427.561 C 107.417 425.267,112.237 419.784,113.449 410.690 C 114.364 403.826,115.424 402.817,116.164 408.103 M105.200 478.447 C 99.133 478.594,96.090 478.934,95.728 479.504 C 94.142 482.000,96.296 484.138,100.394 484.138 L 103.448 484.138 103.448 492.459 C 103.448 501.465,103.998 503.448,106.492 503.448 C 109.071 503.448,109.757 501.925,109.651 496.425 C 109.598 493.650,109.577 489.750,109.605 487.759 L 109.655 484.138 112.652 484.138 C 115.798 484.138,117.931 482.663,117.931 480.487 C 117.931 479.376,115.799 477.788,114.701 478.081 C 114.391 478.163,110.116 478.328,105.200 478.447 M130.000 479.016 C 118.766 484.858,120.381 500.208,132.576 503.492 C 139.976 505.485,148.045 499.686,148.799 491.833 C 149.724 482.203,138.537 474.575,130.000 479.016 M163.103 478.875 C 148.968 485.466,156.606 507.519,171.623 503.475 C 185.902 499.630,184.127 478.856,169.457 478.124 C 166.803 477.992,164.385 478.277,163.103 478.875 M190.500 478.510 C 189.831 478.935,189.667 481.933,189.811 491.086 L 190.000 503.103 198.178 503.298 C 207.123 503.512,208.488 503.068,208.138 500.059 C 207.936 498.318,207.783 498.268,201.724 497.931 L 195.517 497.586 195.324 488.304 C 195.191 481.938,194.866 478.853,194.289 478.487 C 193.202 477.796,191.610 477.806,190.500 478.510 M249.894 479.350 C 238.917 484.784,241.585 501.731,253.741 503.784 C 261.388 505.076,268.966 498.681,268.966 490.935 C 268.966 481.222,258.705 474.989,249.894 479.350 M276.820 478.915 C 276.608 479.470,278.121 482.128,280.290 485.011 C 284.959 491.214,284.957 490.388,280.323 496.203 C 275.954 501.685,275.789 503.010,279.437 503.314 C 281.788 503.511,282.169 503.256,284.859 499.694 C 288.368 495.047,288.255 495.055,291.327 499.239 C 293.996 502.875,294.898 503.448,297.947 503.448 C 301.847 503.448,301.592 502.793,294.038 493.418 L 291.791 490.629 295.941 485.240 C 300.460 479.373,300.664 477.931,296.977 477.931 C 294.935 477.931,294.193 478.442,291.717 481.552 C 290.132 483.543,288.593 485.172,288.298 485.172 C 288.002 485.172,286.473 483.543,284.899 481.552 C 281.904 477.763,277.779 476.416,276.820 478.915 M214.990 489.812 C 214.494 504.104,214.116 503.448,222.851 503.448 C 234.819 503.448,241.437 496.473,233.849 491.859 L 231.872 490.657 233.522 488.738 C 238.523 482.925,234.156 478.621,223.259 478.621 L 215.378 478.621 214.990 489.812 M137.783 484.190 C 144.710 486.604,142.843 497.931,135.517 497.931 C 128.235 497.931,126.519 486.893,133.371 484.124 C 135.317 483.338,135.341 483.338,137.783 484.190 M170.886 484.190 C 177.699 486.564,176.038 497.931,168.878 497.931 C 161.149 497.931,158.687 487.521,165.696 484.474 C 168.445 483.279,168.297 483.287,170.886 484.190 M259.381 485.023 C 266.005 489.475,261.947 499.097,254.068 497.619 C 249.538 496.769,247.443 490.398,250.440 486.587 C 253.104 483.200,255.932 482.705,259.381 485.023 M229.215 485.172 C 230.098 487.474,228.945 488.276,224.754 488.276 C 220.698 488.276,220.690 488.272,220.690 486.207 C 220.690 483.798,228.331 482.870,229.215 485.172 M229.679 494.527 C 230.936 496.876,229.407 497.931,224.743 497.931 L 220.690 497.931 220.690 495.517 L 220.690 493.103 224.803 493.103 C 228.254 493.103,229.040 493.333,229.679 494.527 " stroke="none" fill="#000000" fill-rule="evenodd"></path></g></svg>