<?xml version="1.0" standalone="no"?>
<!DOCTYPE svg PUBLIC "-//W3C//DTD SVG 20010904//EN"
 "http://www.w3.org/TR/2001/REC-SVG-20010904/DTD/svg10.dtd">
<svg version="1.0" xmlns="http://www.w3.org/2000/svg"
 width="4000.000000pt" height="3888.000000pt" viewBox="0 0 4000.000000 3888.000000"
 preserveAspectRatio="xMidYMid meet">

<g transform="translate(0.000000,3888.000000) scale(0.100000,-0.100000)"
fill="#0d1117" stroke="#f0f6fc" stroke-width="500">
<path d="M18930 38310 c-168 -5 -368 -14 -445 -20 -148 -11 -1123 -143 -1555
-211 -2334 -362 -4576 -1134 -6595 -2272 -3817 -2151 -6791 -5547 -8413 -9607
-740 -1853 -1179 -3798 -1302 -5775 -25 -404 -32 -764 -27 -1300 6 -571 12
-727 48 -1195 203 -2673 987 -5241 2342 -7670 2114 -3790 5470 -6710 9582
-8337 1966 -778 4053 -1245 6195 -1387 508 -34 730 -41 1390 -40 783 0 1191
17 1880 80 4350 394 8379 2142 11455 4968 1538 1413 2818 3073 3833 4968 1635
3050 2397 6780 2121 10373 -88 1148 -278 2228 -585 3333 -680 2444 -1733 4612
-3175 6538 -494 660 -1017 1268 -1609 1868 -1690 1713 -3684 3069 -5975 4059
-1539 665 -3243 1161 -4980 1451 -369 61 -558 82 -1005 111 -847 54 -2425 86
-3180 65z m1875 -3850 c2400 -87 4610 -603 6730 -1571 261 -119 831 -408 1103
-559 1043 -579 1985 -1240 2852 -1999 541 -475 1116 -1057 1576 -1596 1171
-1373 2073 -2950 2615 -4575 299 -898 493 -1809 579 -2720 40 -422 45 -557 45
-1115 0 -611 -13 -864 -71 -1360 -294 -2544 -1749 -4937 -3929 -6467 -1102
-773 -2367 -1281 -3615 -1452 -183 -25 -332 -40 -730 -71 -217 -18 -507 -56
-552 -74 -37 -14 -36 -40 2 -139 111 -289 515 -1019 1257 -2277 757 -1282 913
-1607 913 -1902 0 -182 -63 -297 -271 -498 -176 -169 -331 -230 -523 -206
-447 57 -1145 549 -2626 1850 -263 231 -305 269 -685 606 -399 355 -557 490
-780 669 -1237 990 -2281 1388 -4070 1551 -491 44 -912 67 -1710 90 -1053 31
-1663 70 -2050 132 -221 35 -364 35 -507 0 -59 -15 -237 -73 -395 -131 -359
-130 -560 -195 -778 -251 -1337 -348 -2706 -222 -3866 355 -1025 510 -1833
1311 -2385 2365 -99 189 -180 368 -281 625 -99 250 -112 277 -155 326 -50 56
-77 63 -290 74 -605 31 -1151 227 -1738 627 -326 222 -707 568 -996 903 -867
1005 -1459 2357 -1624 3710 -87 717 -92 1562 -14 2355 312 3183 2014 6241
4779 8585 658 559 1394 1088 2137 1538 2508 1519 5393 2409 8373 2582 496 29
1198 37 1680 20z"/>
<path d="M19760 33403 c-455 -18 -740 -38 -1095 -73 -1471 -149 -2856 -435
-4094 -847 -1204 -400 -2323 -930 -3381 -1601 -1176 -746 -2426 -1815 -3325
-2842 -1672 -1912 -2758 -4371 -2970 -6725 -36 -402 -47 -961 -25 -1315 98
-1589 612 -2863 1503 -3727 415 -402 898 -702 1442 -896 141 -50 595 -190 601
-185 2 3 18 135 34 294 49 462 91 710 171 1009 160 593 402 1107 809 1715 234
351 309 484 336 602 20 85 52 136 147 235 99 103 189 171 293 220 76 37 83 38
179 37 291 -4 521 -119 614 -308 39 -80 50 -133 51 -236 0 -123 -29 -233 -100
-375 -71 -143 -154 -256 -304 -413 -236 -248 -385 -436 -526 -663 -397 -639
-587 -1351 -567 -2124 27 -1006 423 -1951 1116 -2659 456 -465 921 -757 1541
-968 1041 -353 2246 -327 3236 70 159 64 313 141 542 272 l213 122 402 -71
c447 -78 609 -101 932 -131 474 -43 945 -70 1735 -100 289 -11 613 -25 720
-30 2843 -151 4026 -617 5980 -2355 74 -66 286 -257 470 -425 738 -671 1203
-1071 1374 -1182 70 -45 80 -47 72 -12 -34 135 -1042 1698 -1433 2222 -404
540 -928 1045 -1673 1609 -392 297 -673 493 -1575 1101 -363 245 -748 505
-856 578 l-196 133 -159 -115 c-197 -143 -267 -186 -374 -224 -131 -49 -211
-62 -355 -63 -200 0 -350 39 -546 140 -138 71 -252 158 -370 281 -245 254
-370 546 -370 858 1 204 46 365 154 546 54 90 62 109 62 153 0 92 -57 166
-544 703 -146 162 -284 314 -306 339 -22 25 -76 77 -120 115 -124 108 -199
138 -292 118 -26 -6 -140 -57 -253 -114 -235 -119 -348 -163 -535 -211 -240
-62 -385 -79 -680 -79 -222 0 -283 3 -415 23 -286 42 -513 109 -790 233 -237
106 -417 168 -490 168 -32 0 -186 -99 -375 -242 -358 -270 -728 -612 -814
-751 l-24 -39 27 -86 c42 -140 57 -252 56 -422 0 -196 -20 -302 -84 -438 -56
-120 -59 -160 -17 -249 55 -116 128 -216 565 -778 383 -492 438 -576 422 -641
-9 -34 -88 -118 -131 -138 -49 -24 -94 -20 -152 14 -121 69 -254 219 -772 868
l-354 443 -36 -5 c-101 -14 -395 -28 -494 -23 -254 14 -477 115 -648 295 -131
137 -216 300 -255 493 -25 124 -16 333 20 454 32 106 89 224 150 309 93 130
310 310 443 367 78 33 162 49 266 49 87 0 513 -31 608 -45 36 -5 57 10 665
481 346 268 638 495 648 505 19 17 17 22 -95 191 -135 206 -230 391 -282 547
-41 126 -93 213 -140 238 -27 14 -44 14 -127 4 -384 -47 -1494 -341 -1930
-512 l-125 -49 -103 -110 c-199 -212 -352 -288 -559 -278 -77 3 -100 9 -158
37 -130 64 -248 218 -290 377 -19 71 -21 202 -4 269 51 214 239 394 459 441
139 29 228 16 405 -60 l120 -51 130 0 c142 0 208 11 555 91 237 54 1574 375
1578 379 1 1 25 135 52 296 77 456 125 620 260 894 129 263 265 452 474 660
373 371 848 613 1396 712 131 24 170 26 405 27 209 1 282 -3 370 -17 686 -115
1197 -458 1561 -1050 l50 -82 75 1 c141 3 476 136 1019 405 1141 565 2369
1326 2511 1555 21 35 22 40 10 133 -37 298 129 578 434 729 293 146 607 130
866 -44 275 -185 415 -475 368 -764 -54 -337 -333 -617 -694 -698 -86 -19
-306 -21 -390 -3 -33 7 -105 26 -160 43 -201 61 -256 50 -503 -100 -402 -243
-930 -547 -1727 -992 -909 -508 -1261 -719 -1427 -854 -82 -67 -83 -71 -54
-165 51 -161 60 -245 60 -531 0 -292 -14 -419 -76 -690 -60 -267 -138 -481
-302 -829 -74 -155 -85 -186 -74 -200 34 -43 403 -477 477 -561 322 -363 526
-546 670 -601 82 -31 139 -28 250 16 252 98 529 106 779 21 499 -170 842 -651
842 -1180 0 -61 -7 -201 -15 -311 l-16 -200 28 -23 c55 -44 531 -361 683 -454
1037 -636 2156 -1039 3300 -1187 540 -71 1198 -80 1730 -25 1385 143 2669 647
3787 1485 1164 873 2069 2065 2623 3454 517 1295 723 2742 604 4240 -200 2524
-1289 4943 -3160 7020 -206 230 -690 719 -904 916 -1094 1003 -2277 1816
-3620 2487 -1945 973 -4064 1545 -6225 1682 -412 26 -1155 38 -1495 23z m1644
-1138 c202 -42 380 -162 489 -331 143 -221 181 -504 101 -744 -14 -41 -57
-132 -95 -202 l-69 -128 351 -688 c735 -1437 827 -1610 940 -1762 80 -108 119
-130 253 -140 206 -17 313 -44 625 -157 188 -68 244 -84 274 -80 67 9 288 163
557 387 210 176 841 732 847 746 2 7 -25 102 -60 211 -89 268 -108 392 -87
558 36 291 182 538 425 720 192 144 472 221 708 195 211 -24 380 -94 562 -236
150 -116 262 -254 318 -391 78 -191 86 -360 43 -813 l-15 -155 22 -21 c19 -18
248 -230 852 -789 336 -311 636 -575 833 -733 l152 -123 148 79 c274 148 405
190 613 199 155 7 259 -7 399 -53 584 -194 1004 -853 959 -1505 -22 -317 -170
-603 -415 -808 -209 -174 -422 -265 -682 -291 -316 -33 -682 77 -962 289 -323
243 -518 577 -537 922 -10 180 19 318 108 511 38 82 49 118 49 156 0 147 -132
282 -1310 1346 -261 236 -487 440 -501 453 l-27 25 -129 -71 c-70 -38 -163
-81 -206 -96 -175 -58 -426 -56 -665 7 -174 45 -164 45 -245 5 -383 -190
-1367 -1076 -1367 -1231 0 -12 11 -65 25 -119 49 -196 54 -378 14 -579 -130
-656 -745 -1168 -1331 -1107 -198 20 -350 84 -543 228 -66 50 -125 90 -132 91
-33 1 -1539 -1005 -2318 -1547 l-230 -160 -6 -379 c-7 -413 -10 -436 -70 -555
-43 -86 -166 -244 -261 -335 -135 -130 -252 -188 -614 -306 -139 -45 -226 -79
-253 -98 -87 -63 -156 -192 -296 -545 -159 -403 -187 -469 -241 -576 -90 -175
-135 -213 -272 -225 -53 -4 -74 -2 -102 13 -52 27 -62 54 -56 153 8 138 63
322 326 1085 l108 317 -158 156 c-220 218 -287 325 -380 605 -23 70 -47 127
-53 127 -7 0 -334 27 -727 60 -777 65 -1128 98 -1401 132 -206 25 -224 22
-265 -48 -14 -23 -58 -143 -98 -266 -113 -344 -207 -536 -377 -761 -705 -938
-2051 -1200 -3121 -606 -235 131 -400 261 -676 533 l-223 221 -37 -21 c-20
-12 -644 -362 -1387 -779 -742 -416 -1420 -798 -1505 -847 -373 -218 -430
-277 -459 -483 -33 -224 -122 -394 -266 -502 -133 -100 -244 -137 -410 -136
-193 0 -335 63 -487 214 -71 72 -94 103 -132 180 -60 122 -76 190 -76 315 0
197 72 366 217 511 66 66 99 90 175 127 185 90 331 97 556 26 150 -48 235 -40
406 39 235 109 3023 1673 3178 1782 32 23 35 8 -56 235 -95 237 -118 363 -118
624 1 498 174 1072 457 1519 423 667 1133 1051 1945 1051 963 0 1840 -530
2240 -1355 119 -245 165 -401 245 -834 24 -135 48 -248 52 -251 5 -4 213 -19
463 -34 569 -34 1005 -66 1505 -111 215 -19 403 -36 418 -38 28 -2 31 2 83
128 30 72 74 160 100 197 147 216 421 370 754 424 72 12 137 15 270 11 260 -9
379 -41 659 -181 l170 -86 173 112 c1495 962 2028 1324 2215 1503 l63 60 -1
80 c-1 44 -6 235 -13 425 l-11 345 -450 102 c-1326 302 -2957 663 -2990 663
-2 0 -14 -33 -26 -72 -47 -156 -127 -267 -335 -466 l-145 -138 176 -425 c227
-544 286 -692 335 -839 72 -215 76 -310 17 -354 -40 -30 -200 -29 -268 1 -94
42 -124 99 -501 953 -115 261 -215 480 -221 486 -7 6 -95 24 -197 38 -198 29
-297 51 -412 92 -158 57 -285 134 -399 241 -95 90 -153 170 -210 288 -100 208
-129 423 -94 688 37 284 150 522 335 707 497 498 1334 454 1739 -90 83 -111
135 -220 218 -449 40 -113 75 -206 76 -207 7 -8 2701 -580 2907 -618 505 -93
714 -87 782 23 50 80 17 238 -108 518 -32 70 -288 590 -570 1154 l-512 1026
-124 18 c-323 47 -464 119 -778 402 l-165 149 -310 -17 c-600 -34 -842 -51
-1007 -69 -290 -33 -369 -59 -501 -166 -200 -162 -263 -169 -465 -56 -196 110
-246 112 -762 31 -536 -85 -693 -122 -764 -180 -48 -40 -60 -70 -81 -190 -20
-121 -47 -205 -98 -303 -122 -237 -344 -437 -567 -511 -41 -13 -144 -36 -229
-50 -85 -14 -156 -26 -158 -28 -2 -2 -97 -273 -212 -603 -376 -1076 -464
-1311 -581 -1543 -120 -239 -207 -293 -351 -218 -79 40 -92 62 -84 145 15 159
98 424 496 1569 159 457 289 834 289 836 0 2 -46 42 -103 89 -241 201 -368
386 -434 633 -23 87 -26 120 -27 255 0 128 4 170 22 244 41 165 123 320 231
438 284 310 818 396 1226 198 132 -63 203 -117 385 -288 121 -113 156 -141
173 -137 12 3 198 27 412 55 671 87 853 120 957 177 30 16 76 57 112 97 145
165 187 191 316 191 104 0 160 -23 264 -109 38 -31 82 -64 98 -72 62 -32 159
-44 373 -44 189 0 1395 46 1421 55 6 1 34 60 63 129 29 69 71 154 93 188 170
267 502 407 812 343z m2598 -486 c203 -42 383 -222 433 -430 77 -326 -170
-658 -491 -659 -33 0 -83 7 -111 15 -105 31 -274 165 -353 280 -51 74 -70 134
-70 221 0 320 218 576 497 583 23 1 66 -4 95 -10z m-11181 -1549 c235 -79 415
-267 490 -510 19 -60 24 -97 23 -190 0 -140 -17 -210 -80 -340 -40 -79 -61
-109 -138 -185 -215 -216 -461 -259 -756 -133 -80 34 -102 39 -139 34 -94 -13
-291 -132 -686 -416 -392 -281 -547 -406 -631 -509 -74 -89 -94 -148 -105
-301 -10 -148 -33 -233 -87 -316 -142 -217 -411 -312 -667 -234 -114 35 -191
84 -290 184 -174 175 -243 377 -200 587 60 301 318 499 649 499 45 0 110 5
146 11 439 71 1406 714 1588 1056 23 44 32 77 37 138 30 336 223 570 530 641
83 19 234 11 316 -16z m6757 -268 c58 -30 77 -64 77 -137 0 -74 -19 -107 -78
-138 -53 -27 -149 -34 -181 -13 -30 19 -46 71 -46 151 0 77 15 130 43 151 28
20 134 13 185 -14z m1313 -369 c61 -57 79 -89 79 -140 0 -109 -142 -206 -255
-174 -47 13 -65 26 -90 64 -43 66 -36 185 14 234 31 31 110 61 164 62 32 1 46
-6 88 -46z m3021 -24 c224 -48 318 -233 189 -372 -85 -92 -246 -101 -329 -19
-119 120 -102 361 28 392 49 11 53 11 112 -1z m5488 -382 c58 -29 89 -121 69
-201 -49 -196 -309 -193 -309 4 0 132 140 248 240 197z m-2610 -1772 c48 -25
102 -103 189 -273 128 -251 161 -278 418 -343 215 -55 282 -95 260 -154 -15
-37 -141 -90 -357 -150 -132 -36 -193 -66 -248 -123 -47 -49 -60 -71 -170
-302 -67 -139 -120 -210 -158 -210 -54 0 -89 67 -139 266 -18 72 -42 149 -53
170 -60 117 -233 205 -552 278 -64 15 -130 35 -148 46 -87 53 8 116 293 193
272 74 311 107 414 350 61 145 90 195 136 236 40 34 71 39 115 16z m-11272
-113 c73 -33 111 -127 77 -191 -47 -91 -268 -102 -307 -15 -17 37 13 121 62
177 53 59 89 66 168 29z m-6897 -175 c27 -51 40 -100 90 -357 116 -594 361
-881 849 -995 243 -56 330 -94 344 -149 21 -84 -105 -175 -384 -281 -250 -94
-370 -165 -481 -282 -150 -160 -228 -333 -304 -674 -53 -238 -73 -315 -106
-400 -46 -119 -93 -149 -124 -76 -7 18 -43 170 -80 337 -36 168 -81 351 -100
407 -61 181 -139 316 -254 437 -142 148 -286 223 -566 296 -133 35 -268 84
-284 104 -17 20 6 82 45 126 50 55 167 112 344 165 355 107 516 231 650 500
68 138 106 261 156 500 75 367 136 469 205 342z m11864 -491 c111 -50 165
-125 165 -226 0 -73 -26 -125 -89 -182 -64 -57 -131 -82 -226 -82 -91 0 -159
29 -219 94 -88 94 -98 214 -28 318 59 87 118 114 247 109 73 -2 101 -8 150
-31z m-3819 -171 c74 -22 129 -67 161 -133 27 -54 28 -64 28 -192 -1 -116 -4
-143 -23 -192 -46 -114 -162 -207 -282 -223 -148 -20 -321 95 -380 252 -31 83
-25 206 14 287 67 136 199 214 367 215 36 1 88 -6 115 -14z m8958 -1182 c74
-22 140 -90 155 -162 34 -159 -79 -290 -250 -291 -55 0 -72 4 -111 29 -59 37
-104 104 -125 183 -54 206 91 312 331 241z m6958 -7 c133 -55 241 -161 268
-266 27 -102 -19 -243 -103 -315 -183 -157 -495 -110 -593 90 -23 48 -26 64
-23 132 5 105 40 175 130 264 118 117 206 143 321 95z m-4695 -161 c47 -50 80
-108 128 -232 45 -113 111 -208 209 -300 101 -94 215 -165 331 -205 69 -24
112 -31 210 -37 130 -7 155 -16 155 -56 0 -26 -70 -125 -183 -258 -147 -172
-195 -276 -204 -437 -7 -116 6 -220 58 -460 22 -101 39 -202 37 -225 -3 -37
-5 -40 -36 -43 -34 -3 -64 11 -357 172 -307 169 -373 165 -765 -40 -229 -120
-278 -135 -301 -92 -17 32 -6 170 32 388 18 108 32 225 33 281 1 91 -1 98 -36
170 -21 42 -89 137 -154 219 -154 192 -184 237 -184 277 0 60 43 83 280 148
218 60 328 121 443 244 105 114 162 243 177 405 6 54 15 105 21 112 22 27 61
16 106 -31z m-3491 -615 c127 -62 223 -185 243 -311 33 -206 -133 -423 -351
-459 -162 -26 -336 67 -410 218 -30 62 -33 74 -33 162 1 110 21 171 87 271 77
116 167 161 309 156 75 -3 96 -8 155 -37z m5626 -460 c103 -32 148 -96 148
-212 0 -124 -48 -219 -134 -269 -64 -37 -115 -38 -183 -4 -87 44 -142 137
-143 243 0 95 42 174 124 234 48 34 96 36 188 8z m-7690 -212 c56 -24 112 -82
142 -147 30 -67 30 -209 -1 -267 -28 -53 -74 -99 -127 -127 -34 -18 -57 -22
-136 -22 -83 0 -101 3 -140 25 -161 90 -202 383 -69 494 91 77 216 93 331 44z
m-15284 -123 c87 -20 138 -50 179 -103 42 -55 56 -110 51 -197 -9 -133 -93
-257 -216 -317 -59 -29 -76 -33 -147 -33 -128 0 -217 53 -272 159 -64 127 -40
299 59 411 30 35 87 70 138 86 42 13 138 10 208 -6z m25359 -304 c193 -37 377
-110 498 -196 77 -55 220 -202 274 -283 251 -373 247 -858 -11 -1240 -158
-234 -395 -409 -681 -502 -112 -37 -129 -52 -216 -205 -178 -309 -419 -847
-1371 -3064 l-647 -1505 112 -220 c118 -233 167 -364 206 -546 33 -153 34
-447 2 -606 -106 -522 -441 -959 -918 -1199 -244 -122 -464 -175 -730 -176
-276 -1 -502 54 -760 184 -314 157 -570 423 -728 757 -62 130 -95 221 -131
366 -86 339 -71 726 39 1044 109 312 276 528 563 730 67 47 121 88 122 92 0 4
-50 117 -111 250 -237 518 -495 1108 -860 1961 l-144 337 -152 0 c-83 0 -187
5 -230 11 -90 12 -253 55 -366 95 -73 26 -83 27 -143 17 -131 -23 -261 -95
-1314 -735 -322 -195 -754 -455 -960 -578 -783 -466 -785 -468 -859 -777 -73
-303 -298 -539 -606 -636 -287 -90 -599 -44 -845 123 -265 180 -437 540 -417
874 18 302 173 566 430 734 259 169 599 188 875 48 96 -49 172 -105 330 -244
l141 -122 503 291 c1136 658 1589 929 2093 1252 154 98 282 181 284 183 2 2
-7 121 -19 265 -21 230 -22 274 -12 368 20 174 73 328 162 463 290 441 878
620 1326 403 170 -82 292 -196 421 -393 43 -64 78 -118 79 -120 1 -2 93 42
204 98 356 178 604 278 1394 560 276 98 615 220 752 270 651 239 1069 423
1169 512 50 45 50 47 62 129 14 104 32 159 89 274 89 180 270 396 439 523 87
66 234 140 300 152 72 13 244 4 362 -19z m-6520 -246 c69 -20 113 -70 113
-126 0 -81 -64 -152 -154 -171 -108 -23 -216 56 -216 157 0 120 114 182 257
140z m-4812 -435 c83 -40 150 -107 188 -188 29 -61 32 -75 32 -167 0 -91 -3
-106 -32 -167 -35 -74 -91 -136 -155 -170 -63 -33 -184 -33 -251 1 -105 54
-216 208 -232 320 -19 141 154 365 310 401 40 10 69 4 140 -30z m-4493 -58
c169 -75 260 -340 172 -501 -57 -105 -175 -156 -342 -149 -141 6 -217 50 -269
156 -25 51 -28 67 -28 162 0 92 3 112 26 160 44 94 104 148 207 187 53 19 175
12 234 -15z m-6381 -1238 c170 -51 238 -133 239 -287 0 -127 -44 -233 -130
-311 -55 -49 -96 -66 -165 -66 -71 0 -113 18 -173 75 -144 133 -175 386 -65
514 71 83 176 110 294 75z m9745 -203 c68 -31 90 -102 59 -192 -33 -97 -103
-146 -180 -129 -70 16 -115 78 -115 160 0 62 22 113 62 141 58 41 113 48 174
20z m-5449 -72 c200 -27 298 -123 298 -289 0 -63 -5 -86 -32 -142 -41 -88
-113 -160 -201 -201 -138 -65 -296 -33 -369 77 -86 127 -95 353 -20 463 36 53
123 91 234 102 6 0 47 -4 90 -10z m-2152 -404 c144 -38 276 -145 338 -276 106
-222 78 -499 -66 -656 -163 -177 -435 -213 -679 -91 -220 110 -328 341 -277
590 41 197 217 379 419 432 73 19 192 20 265 1z m21508 -219 c73 -48 59 -197
-24 -256 -42 -31 -108 -37 -163 -16 -59 23 -87 55 -93 110 -12 100 92 193 204
183 28 -3 62 -13 76 -21z m-25009 -299 c44 -34 74 -98 82 -174 7 -60 6 -63
-25 -94 -31 -31 -33 -31 -109 -27 -128 8 -177 48 -176 143 1 66 36 140 78 167
41 26 104 19 150 -15z m14771 -528 c113 -32 152 -174 70 -256 -28 -28 -40 -33
-79 -33 -75 0 -130 38 -161 112 -18 44 -20 159 -3 176 15 15 120 16 173 1z
m-16095 -497 c194 -77 350 -302 350 -507 0 -140 -46 -250 -145 -350 -104 -105
-229 -155 -386 -155 -206 0 -402 98 -476 237 -82 153 -83 324 -1 493 60 126
217 255 358 296 69 20 232 12 300 -14z m25628 -218 c214 -44 359 -171 428
-374 29 -85 27 -290 -4 -390 -91 -291 -311 -460 -597 -460 -276 0 -517 202
-581 486 -22 99 -15 242 16 331 43 124 131 235 246 312 151 101 312 132 492
95z m-7164 -1288 c53 -22 86 -79 86 -149 0 -132 -82 -182 -201 -122 -87 44
-113 127 -66 209 38 67 110 92 181 62z m-702 -453 c12 -27 41 -120 65 -208 24
-88 61 -196 82 -240 112 -235 278 -360 604 -451 50 -15 124 -41 163 -60 169
-80 104 -148 -266 -279 -275 -97 -346 -152 -445 -346 -79 -155 -127 -229 -180
-278 -101 -93 -181 -35 -244 179 -49 164 -150 301 -289 391 -121 79 -200 103
-394 118 -156 12 -210 42 -194 106 18 70 152 147 391 224 88 29 178 63 201 76
104 61 173 177 314 530 102 255 118 285 152 285 13 0 26 -14 40 -47z m-17805
-133 c80 -49 89 -145 20 -218 -79 -83 -236 -74 -274 16 -28 67 12 182 72 208
47 21 144 18 182 -6z m24955 -352 c172 -82 257 -241 228 -423 -20 -124 -67
-212 -159 -298 -97 -91 -233 -128 -339 -93 -122 41 -256 170 -301 291 -69 183
-1 391 161 497 83 55 130 68 238 65 87 -2 102 -5 172 -39z m-21293 -1388 c120
-57 227 -196 250 -326 28 -155 -61 -311 -222 -384 -62 -29 -83 -34 -152 -34
-66 0 -90 4 -135 26 -81 38 -134 89 -172 166 -64 130 -47 310 41 433 102 143
247 187 390 119z m13041 -561 c54 -13 126 -63 155 -107 126 -191 -50 -493
-289 -495 -50 -1 -72 5 -115 28 -168 92 -247 335 -153 470 34 48 131 101 212
114 57 10 130 6 190 -10z m-7603 -214 c59 -25 119 -81 147 -137 73 -147 -11
-326 -197 -418 -127 -63 -242 -48 -334 43 -113 114 -106 278 18 412 102 110
247 150 366 100z m1930 -689 c139 -51 250 -159 328 -321 51 -107 68 -172 68
-274 1 -152 -49 -277 -153 -381 -115 -116 -257 -170 -444 -170 -185 0 -331 55
-440 163 -181 182 -206 449 -65 689 155 264 450 386 706 294z m7713 -12 c113
-50 155 -125 155 -275 0 -90 -2 -100 -35 -165 -33 -65 -39 -71 -104 -104 -64
-32 -76 -35 -160 -35 -83 0 -97 3 -158 33 -75 37 -100 66 -130 150 -53 149 4
332 120 388 105 51 211 54 312 8z m-14141 -175 c126 -29 266 -140 323 -257 31
-62 33 -73 33 -172 0 -95 -3 -110 -28 -163 -58 -118 -182 -206 -321 -227 -84
-13 -223 1 -289 29 -60 26 -112 82 -139 150 -19 49 -22 75 -23 211 l0 156 38
76 c79 160 236 237 406 197z m1305 -1143 c47 -36 66 -74 66 -134 0 -91 -69
-154 -171 -155 -53 -1 -86 17 -123 66 -45 60 -13 194 57 238 46 29 123 22 171
-15z"/>
<path d="M15380 31034 c-148 -54 -233 -190 -233 -374 1 -147 54 -241 168 -291
39 -18 70 -23 140 -23 206 -2 326 90 355 270 34 212 -120 417 -324 430 -40 3
-76 -1 -106 -12z"/>
<path d="M17591 28954 c-91 -24 -167 -72 -240 -150 -296 -317 -194 -727 232
-930 185 -88 405 -39 584 130 254 240 257 524 9 771 -63 63 -100 90 -167 123
-138 68 -294 89 -418 56z"/>
<path d="M12835 25909 c-352 -47 -730 -235 -950 -470 -253 -271 -385 -609
-385 -989 0 -535 267 -1031 706 -1312 261 -167 631 -258 935 -228 484 46 906
310 1145 716 157 267 233 564 221 863 -9 227 -52 396 -157 606 -198 399 -565
687 -1010 791 -119 28 -380 40 -505 23z"/>
<path d="M18895 24456 c-66 -21 -196 -91 -260 -139 -70 -53 -107 -98 -146
-176 -37 -73 -48 -128 -49 -226 0 -160 58 -295 179 -416 123 -123 263 -176
436 -166 290 17 485 222 485 512 0 95 -19 176 -62 265 -43 91 -165 209 -283
275 -147 82 -215 98 -300 71z"/>
<path d="M31088 21745 c-105 -24 -271 -84 -728 -265 -234 -92 -796 -314 -1250
-493 -1124 -444 -1191 -472 -1303 -554 -64 -47 -90 -96 -126 -238 -38 -146
-124 -328 -206 -436 -82 -107 -97 -140 -96 -214 0 -77 42 -205 139 -430 70
-163 912 -2026 920 -2035 2 -3 148 -8 325 -12 494 -10 668 -40 813 -139 81
-55 164 -91 213 -92 94 -1 142 53 240 269 319 705 1523 3479 1664 3834 54 136
81 240 72 284 -4 17 -19 51 -33 76 -35 62 -376 403 -429 429 -56 28 -134 34
-215 16z m-1725 -2203 c138 -63 192 -150 185 -297 -7 -136 -75 -247 -190 -311
-45 -25 -64 -29 -128 -29 -87 0 -134 19 -190 75 -63 63 -85 121 -85 225 0 115
27 178 117 272 106 111 162 123 291 65z"/>
<path d="M28725 16165 c-82 -18 -211 -69 -265 -105 -92 -61 -193 -177 -247
-285 -36 -70 -73 -203 -83 -299 -34 -300 90 -576 335 -745 147 -102 282 -145
455 -145 139 0 220 19 345 79 149 72 259 176 354 334 123 205 144 446 58 661
-102 250 -344 448 -619 504 -92 19 -249 20 -333 1z"/>
<path d="M17305 19833 c-325 -25 -612 -128 -836 -298 -681 -518 -760 -1611
-165 -2285 305 -345 778 -545 1251 -527 376 15 676 146 946 416 496 497 602
1269 257 1874 -166 291 -431 540 -721 677 -178 84 -312 121 -512 140 -107 10
-135 10 -220 3z"/>
<path d="M21180 14831 c-134 -19 -267 -87 -371 -190 -121 -120 -169 -236 -169
-409 0 -188 69 -345 207 -473 176 -163 417 -202 668 -108 80 29 195 144 243
241 118 242 135 516 42 705 -36 73 -77 111 -171 158 -121 62 -317 94 -449 76z"/>
</g>
</svg>
